<svg width="512" height="512" viewBox="0 0 512 512" fill="none" xmlns="http://www.w3.org/2000/svg">
<path d="M422 230.056L303.441 161L233.177 202.522H135.984C131.184 196.941 124.092 193.404 116.165 193.404C101.714 193.404 90 205.117 90 219.568C90 234.019 101.714 245.733 116.165 245.733C124.092 245.733 131.202 242.178 135.984 236.614L233.177 236.472L299.851 198.541L388.085 249.644L387.428 264.681L307.583 309.19L232.644 267.738V307.11L304.632 351.192L422 283.06V230.091V230.056Z" fill="#8B5CF6" stroke="#8B5CF6" stroke-width="3" stroke-miterlimit="10"/>
<path d="M328.948 255.012C328.948 241.254 317.786 230.092 304.028 230.092C290.27 230.092 279.107 241.254 279.107 255.012C279.107 268.77 290.27 279.933 304.028 279.933C317.786 279.933 328.948 268.77 328.948 255.012Z" fill="#8B5CF6" stroke="#8B5CF6" stroke-width="3" stroke-miterlimit="10"/>
</svg>
